<?xml version="1.0" encoding="UTF-8" standalone="no"?>
<!DOCTYPE svg PUBLIC "-//W3C//DTD SVG 1.1//EN" "http://www.w3.org/Graphics/SVG/1.1/DTD/svg11.dtd">
<svg width="100%" height="100%" viewBox="0 0 169 169" version="1.1" xmlns="http://www.w3.org/2000/svg" xmlns:xlink="http://www.w3.org/1999/xlink" xml:space="preserve" xmlns:serif="http://www.serif.com/" style="fill-rule:evenodd;clip-rule:evenodd;stroke-linecap:round;stroke-linejoin:round;stroke-miterlimit:1.5;">
    <g>
        <path d="M10.426,92.337C8.924,91.777 7.815,90.371 7.718,88.669C7.62,86.968 8.56,85.444 9.987,84.716L9.986,84.217L9.987,83.718C8.56,82.989 7.62,81.466 7.718,79.765C7.815,78.063 8.924,76.657 10.426,76.097C10.462,75.765 10.5,75.434 10.541,75.103C9.206,74.215 8.449,72.592 8.744,70.913C9.038,69.234 10.302,67.966 11.86,67.584C11.934,67.259 12.011,66.934 12.09,66.61C10.869,65.571 10.306,63.871 10.795,62.238C11.284,60.604 12.688,59.493 14.279,59.296C14.392,58.981 14.506,58.668 14.622,58.355C13.531,57.181 13.171,55.427 13.848,53.862C14.524,52.297 16.049,51.357 17.652,51.348C17.8,51.049 17.95,50.751 18.102,50.454C17.155,49.16 17.002,47.377 17.856,45.901C18.71,44.426 20.334,43.67 21.927,43.848C22.109,43.568 22.292,43.29 22.478,43.013C21.687,41.618 21.741,39.829 22.761,38.462C23.78,37.096 25.48,36.533 27.042,36.894C27.254,36.637 27.469,36.382 27.685,36.129C27.06,34.652 27.321,32.881 28.491,31.642C29.661,30.402 31.414,30.039 32.924,30.578C33.165,30.347 33.407,30.119 33.651,29.892C33.201,28.353 33.664,26.624 34.969,25.527C36.274,24.431 38.057,24.273 39.495,24.981C39.761,24.78 40.028,24.581 40.297,24.384C40.027,22.803 40.687,21.139 42.11,20.201C43.534,19.262 45.323,19.311 46.67,20.182C46.957,20.013 47.246,19.845 47.535,19.68C47.451,18.079 48.3,16.503 49.823,15.736C51.345,14.969 53.117,15.226 54.354,16.247C54.659,16.112 54.965,15.98 55.273,15.849C55.376,14.249 56.403,12.782 58.005,12.199C59.607,11.615 61.337,12.077 62.445,13.235C62.764,13.137 63.084,13.042 63.405,12.948C63.694,11.371 64.886,10.034 66.545,9.642C68.205,9.25 69.869,9.911 70.834,11.191C71.162,11.131 71.491,11.074 71.82,11.018C72.292,9.486 73.631,8.298 75.325,8.102C77.018,7.906 78.593,8.756 79.403,10.14C79.735,10.118 80.068,10.099 80.401,10.082C81.046,8.615 82.513,7.59 84.217,7.59C85.921,7.59 87.388,8.615 88.033,10.082C88.366,10.099 88.699,10.118 89.031,10.14C89.841,8.756 91.416,7.906 93.109,8.102C94.803,8.298 96.142,9.486 96.614,11.018C96.943,11.074 97.272,11.131 97.6,11.191C98.565,9.911 100.229,9.25 101.889,9.642C103.548,10.034 104.74,11.371 105.029,12.948C105.35,13.042 105.67,13.137 105.989,13.235C107.097,12.077 108.827,11.615 110.429,12.199C112.031,12.782 113.058,14.249 113.161,15.849C113.469,15.98 113.775,16.112 114.081,16.247C115.317,15.226 117.089,14.969 118.611,15.736C120.134,16.503 120.983,18.079 120.899,19.68C121.188,19.846 121.477,20.013 121.764,20.182C123.111,19.311 124.9,19.262 126.324,20.201C127.747,21.139 128.407,22.803 128.137,24.384C128.406,24.581 128.673,24.781 128.939,24.982C130.377,24.273 132.16,24.431 133.465,25.527C134.77,26.624 135.234,28.353 134.783,29.892C135.027,30.119 135.269,30.347 135.51,30.578C137.02,30.039 138.773,30.402 139.943,31.642C141.113,32.881 141.374,34.652 140.749,36.129C140.965,36.382 141.18,36.638 141.392,36.894C142.954,36.533 144.654,37.096 145.673,38.462C146.693,39.829 146.747,41.618 145.956,43.013C146.142,43.29 146.325,43.568 146.507,43.848C148.1,43.67 149.724,44.426 150.578,45.901C151.432,47.377 151.279,49.161 150.332,50.454C150.484,50.751 150.634,51.049 150.782,51.348C152.385,51.357 153.91,52.297 154.586,53.862C155.263,55.427 154.903,57.181 153.812,58.355C153.928,58.668 154.042,58.981 154.155,59.296C155.746,59.493 157.15,60.604 157.639,62.238C158.128,63.871 157.565,65.571 156.344,66.61C156.423,66.934 156.5,67.259 156.574,67.584C158.132,67.966 159.396,69.234 159.69,70.913C159.985,72.592 159.228,74.215 157.893,75.104C157.934,75.434 157.972,75.765 158.008,76.097C159.51,76.657 160.619,78.063 160.716,79.765C160.814,81.466 159.874,82.99 158.447,83.718L158.448,84.217L158.447,84.716C159.874,85.445 160.814,86.968 160.716,88.669C160.619,90.371 159.51,91.777 158.008,92.337C157.972,92.669 157.934,93 157.893,93.331C159.228,94.219 159.985,95.842 159.69,97.521C159.396,99.2 158.132,100.468 156.574,100.85C156.5,101.175 156.423,101.5 156.344,101.824C157.565,102.863 158.128,104.563 157.639,106.196C157.15,107.83 155.746,108.941 154.155,109.138C154.042,109.453 153.928,109.766 153.812,110.079C154.903,111.253 155.263,113.007 154.586,114.572C153.91,116.137 152.385,117.077 150.782,117.086C150.634,117.385 150.484,117.683 150.332,117.98C151.279,119.274 151.432,121.057 150.578,122.533C149.724,124.008 148.1,124.764 146.507,124.586C146.325,124.866 146.142,125.144 145.956,125.421C146.747,126.816 146.693,128.605 145.673,129.972C144.654,131.338 142.954,131.901 141.392,131.54C141.18,131.797 140.965,132.052 140.749,132.305C141.374,133.782 141.113,135.553 139.943,136.792C138.773,138.032 137.02,138.395 135.51,137.856C135.269,138.087 135.027,138.315 134.783,138.542C135.233,140.081 134.77,141.81 133.465,142.907C132.16,144.003 130.377,144.161 128.939,143.452C128.673,143.654 128.406,143.853 128.137,144.05C128.407,145.631 127.747,147.295 126.324,148.233C124.9,149.172 123.111,149.123 121.764,148.252C121.477,148.421 121.188,148.588 120.899,148.754C120.983,150.355 120.134,151.931 118.611,152.698C117.089,153.465 115.317,153.208 114.08,152.187C113.775,152.322 113.469,152.454 113.161,152.585C113.058,154.185 112.031,155.652 110.429,156.235C108.827,156.819 107.097,156.357 105.989,155.199C105.67,155.297 105.35,155.392 105.029,155.486C104.74,157.063 103.548,158.4 101.889,158.792C100.229,159.184 98.565,158.523 97.6,157.243C97.272,157.303 96.943,157.36 96.614,157.416C96.142,158.948 94.803,160.136 93.109,160.332C91.416,160.528 89.84,159.678 89.031,158.294C88.699,158.316 88.366,158.335 88.033,158.352C87.388,159.819 85.921,160.844 84.217,160.844C82.513,160.844 81.046,159.819 80.401,158.352C80.068,158.335 79.735,158.316 79.403,158.294C78.593,159.678 77.018,160.528 75.325,160.332C73.631,160.136 72.292,158.948 71.82,157.416C71.491,157.36 71.162,157.303 70.834,157.243C69.869,158.523 68.205,159.184 66.545,158.792C64.886,158.4 63.694,157.063 63.405,155.486C63.084,155.392 62.764,155.297 62.445,155.199C61.337,156.357 59.607,156.819 58.005,156.235C56.403,155.652 55.376,154.185 55.273,152.585C54.965,152.454 54.659,152.322 54.353,152.187C53.117,153.208 51.345,153.465 49.823,152.698C48.3,151.931 47.451,150.355 47.535,148.754C47.246,148.588 46.957,148.421 46.67,148.252C45.323,149.123 43.534,149.172 42.11,148.233C40.687,147.295 40.027,145.631 40.297,144.05C40.028,143.853 39.761,143.653 39.495,143.452C38.057,144.161 36.274,144.003 34.969,142.907C33.664,141.81 33.2,140.081 33.651,138.542C33.407,138.315 33.165,138.087 32.924,137.856C31.414,138.395 29.661,138.032 28.491,136.792C27.321,135.553 27.06,133.782 27.685,132.305C27.469,132.052 27.254,131.796 27.042,131.54C25.48,131.901 23.78,131.338 22.761,129.972C21.741,128.605 21.687,126.816 22.478,125.421C22.292,125.144 22.109,124.866 21.927,124.586C20.334,124.764 18.71,124.008 17.856,122.533C17.002,121.057 17.155,119.273 18.102,117.98C17.95,117.683 17.8,117.385 17.652,117.086C16.049,117.077 14.524,116.137 13.848,114.572C13.171,113.007 13.531,111.253 14.622,110.079C14.506,109.766 14.392,109.452 14.279,109.138C12.688,108.941 11.284,107.83 10.795,106.196C10.306,104.563 10.869,102.863 12.09,101.824C12.011,101.5 11.934,101.175 11.86,100.85C10.302,100.468 9.038,99.2 8.743,97.521C8.449,95.842 9.206,94.219 10.541,93.33C10.5,93 10.462,92.669 10.426,92.337Z" style="fill:rgb(254,232,162);stroke:rgb(35,31,32);stroke-width:0.67px;"/>
        <circle cx="84.217" cy="84.217" r="64.136" style="fill:rgb(255,247,222);"/>
        <clipPath id="_clip1">
            <circle cx="84.217" cy="84.217" r="64.136"/>
        </clipPath>
        <g clip-path="url(#_clip1)">
            <path d="M131.743,41.168C142.063,52.552 148.353,67.656 148.353,84.217C148.353,119.615 119.615,148.353 84.217,148.353C64.387,148.353 46.647,139.334 34.878,125.178C46.616,138.127 63.567,146.265 82.404,146.265C117.802,146.265 146.54,117.527 146.54,82.129C146.54,66.561 140.982,52.281 131.743,41.168Z" style="fill:rgb(197,192,175);"/>
            <path d="M36.691,127.398C26.371,116.013 20.081,100.91 20.081,84.349C20.081,48.951 48.819,20.212 84.217,20.212C104.047,20.212 121.787,29.231 133.556,43.387C121.818,30.438 104.867,22.3 86.03,22.3C50.632,22.3 21.894,51.039 21.894,86.437C21.894,102.005 27.452,116.284 36.691,127.398Z" style="fill:white;"/>
        </g>
        <circle cx="84.217" cy="84.217" r="64.136" style="fill:none;stroke:black;stroke-width:0.42px;"/>
        <rect x="80.544" y="20.212" width="10.821" height="64.912"/>
    </g>
</svg>
